<svg xmlns="http://www.w3.org/2000/svg" xmlns:xlink="http://www.w3.org/1999/xlink" xmlns:inkscape="http://www.inkscape.org/namespaces/inkscape" version="1.1" width="396" height="324" viewBox="0 0 396 324">
<defs>
<clipPath id="clip_0">
<path transform="matrix(1,0,0,-1,0,324)" d="M0 324H396V0H0Z"/>
</clipPath>
</defs>
<g inkscape:groupmode="layer" inkscape:label="Layer 1">
<g clip-path="url(#clip_0)">
<path transform="matrix(1,0,0,-1,199.1464,193.6121)" d="M0 0C-.264 .071-1.038 .876-1.708 1.881L-1.808 2.031-1.985 2.072C-31.347 8.917-47.703 53.99-44.018 90.161-43.592 94.338-42.893 98.27-41.937 101.912-40.956 105.639-39.689 109.122-38.17 112.265-36.473 115.774-34.427 118.853-32.087 121.415-27.21 126.759-21.181 129.633-14.651 129.726-14.502 129.729-14.078 129.741-14.041 130.134-12.898 132.462-9.957 134.089-7.761 134.394L-7.455 134.437-7.38 134.738C-7.319 134.983-5.921 140.494 .006 140.494 5.949 140.494 7.378 134.825 7.393 134.765L7.466 134.463 7.774 134.42C9.973 134.112 12.897 132.465 14.045 130.143 14.076 129.742 14.503 129.729 14.647 129.726 21.183 129.633 27.213 126.759 32.089 121.415 34.771 118.508 37.083 114.852 38.965 110.546L39.344 109.651C41.707 103.978 43.281 97.42 44.02 90.161 47.703 53.989 31.346 8.917 1.987 2.072L1.81 2.031 1.71 1.881C1.04 .876 .265 .072 0 0" fill="#ffffff"/>
<path transform="matrix(1,0,0,-1,242.3937,123.681)" d="M0 0C-.509-5.92-1.476-11.803-2.9-17.572-4.294-23.217-6.126-28.761-8.448-34.093-10.851-39.611-13.843-44.981-17.479-49.784-18.237-50.785-19.022-51.766-19.838-52.72-21.035-54.12-22.306-55.458-23.649-56.719-25.282-58.251-27.042-59.681-28.908-60.961-31.846-62.978-35.052-64.599-38.415-65.708-39.096-65.932-39.116-65.972-39.928-66.154-39.268-64.744-38.78-63.041-38.851-61.13-37.625-60.694-36.431-60.172-35.274-59.578-30.143-56.945-25.697-52.914-22.096-48.443-18.509-43.99-15.604-38.987-13.218-33.827-10.842-28.691-8.962-23.329-7.504-17.863-6.003-12.237-4.948-6.49-4.346-.699-3.751 5.021-3.589 10.799-3.975 16.54-4.396 22.797-5.446 29.045-7.541 34.97-9.17 39.577-11.454 44.091-14.778 47.715-18.194 51.438-22.786 54.015-27.928 54.024-31.364 54.03-33.733 51.407-34.44 48.049-35.014 45.347-34.455 41.981-32.741 39.782-32.016 39.032-32.133 38.822-32.357 38.819-33.819 38.806-41.276 39.961-40.636 47.277-40.223 52.044-37.893 55.18-35.233 57.071-32.819 58.588-30.075 58.767-28.942 58.767-27.552 58.767-26.162 58.681-24.795 58.427-24.242 58.35-23.633 58.148-23.123 58.009-22.561 57.857-22.006 57.681-21.459 57.484-20.382 57.095-19.336 56.622-18.33 56.074-15.918 54.76-13.796 53.031-11.907 51.046-9.88 48.918-8.21 46.436-6.807 43.861-5.434 41.343-4.325 38.694-3.402 35.981-2.394 33.022-1.65 29.972-1.089 26.899-.524 23.808-.149 20.686 .11 17.556 .594 11.725 .501 5.826 0 0M-42.741-68.213C-42.761-68.236-42.997-68.524-43.247-68.553-43.496-68.524-43.733-68.236-43.753-68.213-45.021-66.619-46.914-63.527-46.201-59.836-45.999-58.797-44.252-58.328-43.247-58.317-42.242-58.328-40.494-58.797-40.293-59.836-39.58-63.527-41.472-66.619-42.741-68.213M-48.078-65.708C-51.441-64.599-54.648-62.978-57.585-60.961-59.451-59.681-61.212-58.251-62.844-56.719-64.188-55.458-65.458-54.12-66.655-52.72-67.471-51.766-68.256-50.785-69.014-49.784-72.65-44.981-75.643-39.611-78.046-34.093-80.368-28.761-82.2-23.217-83.593-17.572-85.017-11.803-85.985-5.92-86.493 0-86.994 5.826-87.087 11.725-86.604 17.556-86.345 20.686-85.969 23.808-85.405 26.899-84.843 29.972-84.099 33.022-83.092 35.981-82.168 38.694-81.059 41.343-79.686 43.861-78.283 46.436-76.613 48.918-74.587 51.046-72.697 53.031-70.576 54.76-68.163 56.074-67.158 56.622-66.112 57.095-65.034 57.484-64.487 57.681-63.932 57.857-63.371 58.009-62.86 58.148-62.219 58.358-61.699 58.427-60.332 58.681-58.941 58.767-57.551 58.767-56.419 58.767-53.674 58.588-51.261 57.071-48.6 55.18-46.271 52.044-45.857 47.277-45.218 39.961-52.675 38.806-54.136 38.819-54.36 38.822-54.477 39.032-53.752 39.782-52.038 41.981-51.479 45.347-52.054 48.049-52.761 51.407-55.13 54.03-58.566 54.024-63.707 54.015-68.299 51.438-71.715 47.715-75.039 44.091-77.323 39.577-78.952 34.97-81.047 29.045-82.097 22.797-82.518 16.54-82.905 10.799-82.743 5.021-82.148-.699-81.545-6.49-80.491-12.237-78.99-17.863-77.532-23.329-75.651-28.691-73.276-33.827-70.89-38.987-67.984-43.99-64.397-48.443-60.796-52.914-56.351-56.945-51.219-59.578-50.062-60.172-48.868-60.694-47.643-61.13-47.714-63.041-47.225-64.744-46.565-66.154-47.377-65.972-47.397-65.932-48.078-65.708M-14.671 13.844C-15.679 19.997-18.728 28.095-25.325 32.25-17.511 36.837-14.122 41.869-13.348 43.881-8.988 37.688-5.979 28.392-5.274 16.545-6.869 15.712-10.257 14.23-14.671 13.844M-24.032-32.169C-21.315-27.371-19.012-22.327-17.335-17.07-16.106-13.216-15.207-9.236-14.647-5.208-14.055-.952-13.843 3.358-14.02 7.628-14.069 8.815-14.202 10.72-14.535 12.986-10.273 13.361-6.985 14.704-5.221 15.592-4.373-1.773-8.194-21.035-15.7-35.96-17.101-35.685-21.259-34.691-24.032-32.169M-38.163-49.357C-34.396-46.651-29.458-41.527-24.477-32.938-21.681-35.401-17.777-36.42-16.114-36.761-20.438-45.12-25.935-52.045-32.431-56.412-33.567-55.534-36.799-52.817-38.163-49.357M-47.578-49.882C-45.567-51.347-43.514-52.18-43.247-52.266-42.979-52.18-40.926-51.347-38.916-49.882-37.497-53.249-34.538-55.856-33.192-56.918-35.048-58.094-36.979-59.069-38.989-59.804-39.002-59.733-39.007-59.662-39.019-59.59-39.434-57.453-42.226-57.015-43.247-57.012-44.267-57.015-47.059-57.453-47.474-59.59-47.486-59.662-47.492-59.733-47.504-59.804-49.514-59.069-51.445-58.094-53.302-56.918-51.955-55.856-48.996-53.249-47.578-49.882M-62.017-32.938C-57.035-41.527-52.097-46.651-48.33-49.357-49.695-52.817-52.927-55.534-54.062-56.412-60.558-52.045-66.055-45.12-70.379-36.761-68.716-36.42-64.812-35.401-62.017-32.938M-81.22 16.545C-80.515 28.392-77.506 37.688-73.146 43.881-72.371 41.869-68.983 36.837-61.168 32.25-67.81 28.254-70.814 19.997-71.822 13.844-76.236 14.23-79.625 15.712-81.22 16.545M-71.958 12.986C-72.291 10.72-72.425 8.815-72.474 7.628-72.651 3.358-72.438-.952-71.847-5.208-71.287-9.236-70.388-13.216-69.158-17.07-67.481-22.327-65.179-27.371-62.461-32.169-65.235-34.691-69.392-35.685-70.794-35.96-78.299-21.035-82.12-1.773-81.273 15.592-79.509 14.704-76.22 13.361-71.958 12.986M-46.26 62.654C-45.01 61.884-44.03 60.668-43.68 59.243-43.576 58.822-43.416 58.57-43.247 58.57-43.077 58.57-42.917 58.822-42.814 59.243-42.463 60.668-41.483 61.884-40.234 62.654-36.454 64.985-32.168 63.442-30.451 60.088-31.328 59.939-32.102 59.724-33.152 59.409-34.676 58.883-35.933 58.24-37.004 57.268-39.407 55.084-41.536 51.701-41.93 47.391-43.01 35.544-29.423 37.405-28.738 37.462-26.982 37.462-25.656 40.227-25.656 43.893-25.656 47.56-27.017 50.326-28.738 50.326-29.79 50.326-31.612 49.484-31.781 46.201-31.9 43.894-30.771 40.828-29.313 40.636-28.558 40.537-27.866 41.874-27.65 43.229-27.459 44.408-27.559 46.257-28.611 46.521-28.943 46.605-29.279 46.401-29.363 46.068-29.439 45.766-28.711 45.252-28.738 43.894-28.78 41.867-30.817 42.88-30.544 46.099-30.298 48.954-28.84 48.773-28.78 48.776-27.964 48.776-26.735 47.075-26.735 43.893-26.735 41.061-28.103 38.013-30.713 39.605-32.912 41.213-33.78 44.915-33.172 47.779-32.896 49.094-31.762 52.672-28.103 52.672-22.823 52.672-17.903 49.898-13.977 44.738-14.407 43.353-17.128 38.092-25.777 33.056-25.963 32.962-26.236 32.804-26.251 32.81-28.89 33.884-31.366 34.554-34.245 34.39-36.793 34.244-39.279 33.778-41.757 33.197-42.246 33.083-42.745 32.954-43.247 32.954-43.748 32.954-44.248 33.083-44.736 33.197-47.214 33.778-49.701 34.244-52.249 34.39-55.127 34.554-57.603 33.884-60.243 32.81-60.258 32.804-60.53 32.962-60.716 33.056-69.365 38.092-72.086 43.353-72.516 44.738-68.591 49.898-63.671 52.672-58.39 52.672-54.732 52.672-53.598 49.094-53.321 47.779-52.713 44.915-53.581 41.213-55.78 39.605-58.39 38.013-59.758 41.061-59.758 43.893-59.758 47.075-58.53 48.776-57.714 48.776-57.653 48.773-56.195 48.954-55.949 46.099-55.677 42.88-57.714 41.867-57.756 43.894-57.782 45.252-57.054 45.766-57.13 46.068-57.215 46.401-57.55 46.605-57.882 46.521-58.935 46.257-59.035 44.408-58.843 43.229-58.628 41.874-57.936 40.537-57.18 40.636-55.722 40.828-54.593 43.894-54.712 46.201-54.881 49.484-56.703 50.326-57.756 50.326-59.476 50.326-60.837 47.56-60.837 43.893-60.837 40.227-59.512 37.462-57.756 37.462-57.071 37.405-43.483 35.544-44.563 47.391-44.957 51.701-47.086 55.084-49.49 57.268-50.56 58.24-51.818 58.883-53.341 59.409-54.392 59.724-55.166 59.939-56.042 60.088-54.326 63.442-50.04 64.985-46.26 62.654M-43.247 69.599C-38.041 69.599-36.894 65.176-36.886 65.13-39.473 64.954-41.886 63.387-43.134 61.128-43.153 61.094-43.198 60.977-43.247 60.977-43.302 60.977-43.341 61.094-43.36 61.128-44.607 63.387-47.02 64.954-49.607 65.13-49.599 65.176-48.452 69.599-43.247 69.599M1.189 20.273C.885 23.264 .43 26.241-.208 29.179-.795 31.883-1.537 34.555-2.466 37.162-3.445 39.908-4.632 42.605-6.071 45.142-7.423 47.525-9.011 49.765-10.859 51.79-15.785 57.187-21.87 60.163-28.618 60.258H-28.765C-29.86 62.657-32.88 64.608-35.505 64.973-35.505 64.973-36.915 70.986-43.247 71.015-49.578 70.986-50.988 64.973-50.988 64.973-53.613 64.608-56.633 62.657-57.728 60.258H-57.875C-64.623 60.163-70.708 57.187-75.635 51.79-77.483 49.765-79.07 47.525-80.422 45.142-81.862 42.605-83.048 39.908-84.027 37.162-84.957 34.555-85.699 31.883-86.286 29.179-86.923 26.241-87.378 23.264-87.682 20.273-91.415-16.365-74.936-61.399-45.297-68.309-44.846-68.985-43.814-70.383-43.247-70.383-42.68-70.383-41.648-68.985-41.197-68.309-11.558-61.399 4.921-16.365 1.189 20.273" fill="#ce1443"/>
<path transform="matrix(1,0,0,-1,226.7616,116.285)" d="M0 0C-.183 4.355-1.455 17.651-10.503 23.42-12.459 24.664-15.027 25.213-17.608 25.381-22.05 25.67-25.342 23.972-27.559 23.91H-27.67C-29.887 23.972-33.205 25.67-37.647 25.381-40.226 25.213-42.77 24.664-44.726 23.42-53.772 17.651-55.046 4.355-55.229 0-55.875-15.405-51.005-27.437-49.495-30.757-43.233-44.542-35.676-54.287-28.212-57.601L-27.616-57.868-27.014-57.601C-19.554-54.287-11.994-44.542-5.736-30.757-4.225-27.437 .646-15.405 0 0" fill="#ce1443"/>
<path transform="matrix(1,0,0,-1,212.588,105.8302)" d="M0 0V-3.01L.608-2.917C.618-2.916 .732-2.901 .893-2.901 1.226-2.901 1.839-2.959 2.222-3.35 2.583-3.717 2.698-4.336 2.569-5.149 2.557-5.18-3.486-31.378-4.635-36.371-5.958-30.058-13.159 4.413-13.159 4.413L-13.189 4.559H-14.617L-14.64 4.404C-14.64 4.404-19.85-29.153-20.891-35.869-22.249-30.055-28.054-5.18-28.054-5.18-28.071-5.021-28.078-4.869-28.078-4.728-28.078-4.024-27.912-3.506-27.579-3.188-27.137-2.764-26.469-2.824-26.41-2.83L-25.812-2.908-25.807 0H-35.918V-2.845L-35.471-2.916C-35.249-2.959-34.122-3.232-33.936-4.263-33.934-4.28-22.107-55.032-21.605-57.191L-21.57-57.333H-19.792L-19.771-57.179C-19.715-56.828-14.901-25.328-14.002-19.428-12.858-25.302-6.728-56.837-6.662-57.185L-6.632-57.333H-5.045L6.695-4.233C6.965-3.131 7.933-3.013 8.338-3.013 8.396-3.013 8.436-3.015 8.455-3.018L9.036-3.064V0Z" fill="#ffffff"/>
<path transform="matrix(1,0,0,-1,81.1905,203.4962)" d="M0 0C4.909-1.762 2.831-7.049 1.699-10.768L-5.413-34.651-14.159-6.395C-15.041-3.526-15.474-1.438-15.103 .193H-23.976V0C-20.514-1.831-21.769-6.07-22.967-10.051L-30.333-34.849-39.705-4.505C-40.083-3.261-40.71-1.242-40.46 .193H-49.648V0C-46.501-2.219-45.553-6.463-44.424-10.051L-36.996-34.129C-34.923-40.853-34.356-40.396-28.634-44.701L-18.814-11.746-11.897-34.195C-9.814-40.916-9.374-40.59-3.587-44.701L9.688 .193H0Z" fill="#ce1443"/>
<path transform="matrix(1,0,0,-1,93.0193,203.4962)" d="M0 0C3.21-1.242 2.767-6.005 2.767-9.009V-33.605C2.767-36.539 3.144-41.373 0-42.547V-42.744H11.956V-42.547C8.811-41.306 9.185-36.539 9.185-33.605V-9.009C9.185-6.07 8.811-1.242 11.956 0V.193H0Z" fill="#ce1443"/>
<path transform="matrix(1,0,0,-1,115.9834,212.89569)" d="M0 0C0 4.501 4.535 5.937 8.118 5.937 11.646 5.937 15.546 4.437 18.001 1.829V9.203C14.976 10.181 11.77 10.64 8.623 10.64 .947 10.64-7.17 7.5-7.17-.716-7.17-14.551 14.472-12.724 14.472-22.904 14.472-27.471 9.065-29.687 5.479-29.687 .569-29.687-4.593-27.6-8.303-24.274L-6.477-32.429C-2.891-33.801 .947-34.388 4.784-34.388 14.606-34.388 21.649-27.86 21.649-20.882 21.649-8.808 0-8.938 0 0" fill="#ce1443"/>
<path transform="matrix(1,0,0,-1,163.138,241.8716)" d="M0 0C-9.69 0-15.986 8.552-15.986 18.143-15.986 27.607-9.945 34.196-1.26 34.196 2.89 34.196 6.923 32.763 10.383 30.477V37.981C6.667 38.894 2.767 39.616-1.068 39.616-13.971 39.616-23.159 30.674-23.159 17.165-23.159 3.198-13.971-5.413 .882-5.413 4.152-5.413 7.422-4.894 10.383-3.453L13.593 4.113H13.4C9.436 1.768 4.72 0 0 0" fill="#ce1443"/>
<path transform="matrix(1,0,0,-1,199.1115,242.5827)" d="M0 0C-9.878 0-16.112 9.394-16.112 18.532-16.112 28.387-9.878 35.693-.123 35.693 9.811 35.693 15.664 26.49 15.664 16.963 15.664 7.238 9.56 0 0 0M.311 40.385C-12.899 40.717-23.285 30.342-23.285 17.945-23.285 4.562-12.774-4.701-.315-4.701 12.208-4.701 22.835 4.957 22.835 18.273 22.835 30.01 13.529 40.454 .311 40.385" fill="#ce1443"/>
<path transform="matrix(1,0,0,-1,254.2727,203.4962)" d="M0 0C3.336-1.96 3.275-4.572 3.275-8.224V-32.959L-19.757-2.812-20.64-1.505C-21.08-.98-21.336-.658-21.583 .131V.193H-30.767V0C-27.498-1.96-27.498-4.572-27.498-8.224V-34.263C-27.498-37.913-27.498-40.521-30.831-42.547V-42.744H-19.693V-42.547C-23.03-40.521-22.967-37.913-22.967-34.263V-9.009L-1.383-37.39C1.385-41.113 3.336-43.269 7.803-44.834V-8.224C7.803-4.572 7.803-1.96 11.074 0V.193H0Z" fill="#ce1443"/>
<path transform="matrix(1,0,0,-1,274.5543,212.89569)" d="M0 0C0 4.501 4.53 5.937 8.118 5.937 11.642 5.937 15.546 4.437 17.996 1.829V9.203C14.98 10.181 11.77 10.64 8.619 10.64 .95 10.64-7.171 7.5-7.171-.716-7.171-14.551 14.471-12.724 14.471-22.904 14.471-27.471 9.061-29.687 5.472-29.687 .566-29.687-4.59-27.6-8.307-24.274L-6.481-32.429C-2.894-33.801 .95-34.388 4.788-34.388 14.598-34.388 21.646-27.86 21.646-20.882 21.646-8.808 0-8.938 0 0" fill="#ce1443"/>
<path transform="matrix(1,0,0,-1,298.5739,203.4962)" d="M0 0C3.206-1.242 2.768-6.005 2.768-9.009V-33.605C2.768-36.539 3.15-41.373 0-42.547V-42.744H11.952V-42.547C8.804-41.306 9.187-36.539 9.187-33.605V-9.009C9.187-6.07 8.804-1.242 11.952 0V.193H0Z" fill="#ce1443"/>
<path transform="matrix(1,0,0,-1,344.4646,203.30301)" d="M0 0V-.193C3.342-2.153 3.276-4.765 3.276-8.417V-33.153L-19.758-3.005-20.641-1.698C-21.075-1.173-21.328-.851-21.585-.062V0H-30.773V-.193C-27.501-2.153-27.501-4.765-27.501-8.417V-34.456C-27.501-38.107-27.501-40.715-30.832-42.741V-42.937H-19.693V-42.741C-23.029-40.715-22.964-38.107-22.964-34.456V-9.202L-1.384-37.583C1.381-41.306 3.342-43.462 7.803-45.027V-8.417C7.803-4.765 7.803-2.153 11.074-.193V0Z" fill="#ce1443"/>
<path transform="matrix(1,0,0,-1,49.4663,264.793)" d="M0 0C.459 0 .87 .077 1.233 .232 1.596 .387 1.903 .604 2.154 .885 2.405 1.164 2.597 1.498 2.73 1.885 2.864 2.272 2.931 2.701 2.931 3.17V10.129H4.628V3.17C4.628 2.498 4.521 1.876 4.308 1.305 4.094 .733 3.788 .24 3.387-.177 2.987-.593 2.501-.918 1.93-1.153 1.358-1.389 .715-1.506 0-1.506-.715-1.506-1.358-1.389-1.93-1.153-2.501-.918-2.987-.593-3.387-.177-3.788 .24-4.094 .733-4.308 1.305-4.521 1.876-4.628 2.498-4.628 3.17V10.129H-2.923V3.179C-2.923 2.709-2.857 2.279-2.727 1.889-2.596 1.5-2.405 1.164-2.154 .885-1.903 .604-1.596 .387-1.233 .232-.87 .077-.459 0 0 0" fill="#ce1443"/>
<path transform="matrix(1,0,0,-1,66.5908,254.6641)" d="M0 0V-11.498H-.865C-.999-11.498-1.109-11.475-1.197-11.426-1.285-11.379-1.375-11.301-1.465-11.194L-7.959-2.795C-7.949-2.938-7.939-3.08-7.931-3.219-7.923-3.357-7.919-3.488-7.919-3.611V-11.498H-9.417V0H-8.536C-8.387 0-8.274-.018-8.2-.052-8.125-.087-8.042-.166-7.951-.288L-1.441-8.695C-1.458-8.541-1.469-8.391-1.478-8.244-1.485-8.097-1.489-7.959-1.489-7.831V0Z" fill="#ce1443"/>
<path transform="matrix(1,0,0,-1,0,324)" d="M71.595 57.838H69.882V69.336H71.595Z" fill="#ce1443"/>
<path transform="matrix(1,0,0,-1,84.3584,254.6641)" d="M0 0-4.676-11.498H-6.206L-10.882 0H-9.521C-9.371 0-9.25-.037-9.156-.111-9.063-.187-8.992-.283-8.944-.4L-5.837-8.215C-5.763-8.408-5.689-8.619-5.617-8.848-5.545-9.078-5.48-9.318-5.421-9.568-5.368-9.318-5.309-9.078-5.245-8.848-5.181-8.619-5.111-8.408-5.037-8.215L-1.938-.4C-1.9-.293-1.833-.2-1.733-.12-1.635-.04-1.513 0-1.369 0Z" fill="#ce1443"/>
<path transform="matrix(1,0,0,-1,93.3521,264.7773)" d="M0 0-.008-1.385H-7.134V10.113H-.008V8.729H-5.421V5.085H-1.065V3.748H-5.421V0Z" fill="#ce1443"/>
<path transform="matrix(1,0,0,-1,99.1655,260.2051)" d="M0 0C.437 0 .823 .053 1.157 .16 1.491 .268 1.77 .418 1.994 .612 2.218 .807 2.386 1.039 2.498 1.309 2.61 1.578 2.667 1.877 2.667 2.202 2.667 2.863 2.449 3.363 2.014 3.699 1.579 4.035 .926 4.204 .056 4.204H-1.553V0ZM5.365-5.957H3.844C3.539-5.957 3.318-5.838 3.179-5.598L.336-1.609C.246-1.477 .147-1.381 .04-1.325-.067-1.27-.227-1.241-.44-1.241H-1.553V-5.957H-3.259V5.541H.056C.798 5.541 1.437 5.465 1.974 5.312 2.51 5.16 2.953 4.944 3.303 4.664 3.652 4.384 3.912 4.047 4.08 3.651 4.248 3.256 4.332 2.813 4.332 2.322 4.332 1.922 4.271 1.545 4.148 1.193 4.025 .841 3.845 .524 3.607 .244 3.37-.036 3.08-.277 2.738-.48 2.397-.684 2.01-.838 1.578-.945 1.791-1.073 1.975-1.252 2.13-1.481Z" fill="#ce1443"/>
<path transform="matrix(1,0,0,-1,112.4268,256.5371)" d="M0 0C-.053-.092-.109-.158-.168-.201-.227-.244-.302-.265-.392-.265-.488-.265-.598-.221-.721-.133-.843-.045-.997 .055-1.181 .164-1.365 .273-1.585 .371-1.842 .46-2.098 .548-2.405 .592-2.763 .592-3.099 .592-3.394 .548-3.647 .46-3.901 .371-4.113 .252-4.284 .1-4.455-.053-4.584-.231-4.672-.437-4.76-.643-4.804-.865-4.804-1.105-4.804-1.416-4.726-1.672-4.568-1.875-4.411-2.077-4.204-2.25-3.948-2.395-3.691-2.539-3.4-2.664-3.075-2.771-2.749-2.878-2.416-2.988-2.074-3.104-1.732-3.219-1.398-3.351-1.073-3.5-.748-3.649-.457-3.838-.2-4.064 .056-4.291 .263-4.568 .42-4.896 .578-5.226 .657-5.627 .657-6.102 .657-6.609 .57-7.084 .396-7.527 .223-7.971-.029-8.357-.36-8.688-.691-9.02-1.098-9.279-1.582-9.469-2.064-9.658-2.613-9.754-3.227-9.754-3.595-9.754-3.953-9.718-4.3-9.646-4.647-9.573-4.975-9.473-5.285-9.342-5.594-9.211-5.884-9.053-6.154-8.869-6.423-8.685-6.665-8.479-6.878-8.248L-6.39-7.432C-6.342-7.367-6.285-7.314-6.218-7.271-6.151-7.229-6.075-7.207-5.989-7.207-5.877-7.207-5.748-7.266-5.601-7.383-5.454-7.501-5.273-7.631-5.057-7.771-4.84-7.913-4.582-8.043-4.28-8.16-3.979-8.277-3.611-8.336-3.179-8.336-2.827-8.336-2.512-8.289-2.234-8.196-1.957-8.104-1.723-7.969-1.533-7.796-1.344-7.623-1.198-7.412-1.097-7.167-.996-6.922-.945-6.649-.945-6.351-.945-6.014-1.022-5.739-1.177-5.525-1.332-5.312-1.538-5.133-1.793-4.989-2.05-4.846-2.341-4.723-2.667-4.621-2.992-4.52-3.326-4.414-3.667-4.305-4.009-4.195-4.343-4.068-4.668-3.924-4.994-3.78-5.285-3.592-5.541-3.359-5.797-3.127-6.003-2.836-6.158-2.486-6.312-2.137-6.39-1.706-6.39-1.193-6.39-.783-6.31-.385-6.149 0-5.989 .384-5.756 .725-5.449 1.021-5.142 1.316-4.764 1.555-4.316 1.732-3.868 1.912-3.355 2.002-2.778 2.002-2.133 2.002-1.539 1.898-.997 1.693-.455 1.487 .016 1.192 .417 .809Z" fill="#ce1443"/>
<path transform="matrix(1,0,0,-1,0,324)" d="M117.295 57.838H115.582V69.336H117.295Z" fill="#ce1443"/>
<path transform="matrix(1,0,0,-1,128.2778,256.08979)" d="M0 0H-3.651V-10.072H-5.349V0H-9.016V1.426H0Z" fill="#ce1443"/>
<path transform="matrix(1,0,0,-1,135.2603,261.6143)" d="M0 0V-4.548H-1.698V0L-5.91 6.95H-4.412C-4.263 6.95-4.143 6.914-4.052 6.843-3.961 6.771-3.886 6.675-3.828 6.558L-1.33 2.258C-1.228 2.061-1.136 1.874-1.053 1.697-.97 1.521-.897 1.348-.833 1.177-.774 1.348-.706 1.521-.629 1.697-.551 1.874-.462 2.061-.36 2.258L2.13 6.558C2.183 6.653 2.256 6.743 2.35 6.826 2.443 6.909 2.562 6.95 2.706 6.95H4.212Z" fill="#ce1443"/>
<path transform="matrix(1,0,0,-1,154.6211,260.4131)" d="M0 0C0 .683-.093 1.297-.28 1.841-.467 2.386-.732 2.848-1.077 3.227-1.421 3.606-1.837 3.896-2.326 4.1-2.814 4.302-3.36 4.403-3.963 4.403-4.567 4.403-5.112 4.302-5.601 4.1-6.089 3.896-6.507 3.606-6.854 3.227-7.201 2.848-7.468 2.386-7.655 1.841-7.842 1.297-7.935 .683-7.935 0-7.935-.688-7.842-1.304-7.655-1.846-7.468-2.388-7.201-2.849-6.854-3.228-6.507-3.606-6.089-3.896-5.601-4.097-5.112-4.296-4.567-4.396-3.963-4.396-3.36-4.396-2.814-4.296-2.326-4.097-1.837-3.896-1.421-3.606-1.077-3.228-.732-2.849-.467-2.388-.28-1.846-.093-1.304 0-.688 0 0M1.746 0C1.746-.86 1.608-1.648 1.333-2.366 1.059-3.085 .67-3.704 .168-4.224-.333-4.745-.934-5.149-1.633-5.437-2.333-5.726-3.109-5.87-3.963-5.87-4.812-5.87-5.587-5.726-6.29-5.437-6.992-5.149-7.592-4.745-8.091-4.224-8.59-3.704-8.979-3.085-9.256-2.366-9.534-1.648-9.672-.86-9.672 0-9.672 .854-9.534 1.642-9.256 2.362-8.979 3.083-8.59 3.703-8.091 4.224-7.592 4.744-6.992 5.149-6.29 5.44-5.587 5.731-4.812 5.878-3.963 5.878-3.109 5.878-2.333 5.731-1.633 5.44-.934 5.149-.333 4.744 .168 4.224 .67 3.703 1.059 3.083 1.333 2.362 1.608 1.642 1.746 .854 1.746 0" fill="#ce1443"/>
<path transform="matrix(1,0,0,-1,160.5869,256.0488)" d="M0 0V-3.852H4.612V-5.237H0V-10.113H-1.713V1.385H5.413V0Z" fill="#ce1443"/>
<path transform="matrix(1,0,0,-1,187.8828,254.6641)" d="M0 0-3.587-11.498H-5.124L-7.927-2.971C-7.991-2.8-8.047-2.594-8.095-2.354-8.154-2.6-8.21-2.805-8.264-2.971L-11.098-11.498H-12.627L-16.214 0H-14.789C-14.64 0-14.514-.036-14.413-.107-14.312-.18-14.245-.277-14.212-.4L-11.947-8.096C-11.904-8.245-11.865-8.408-11.831-8.584-11.796-8.76-11.76-8.944-11.722-9.137-11.685-8.944-11.646-8.76-11.606-8.584-11.566-8.408-11.52-8.245-11.466-8.096L-8.872-.4C-8.84-.293-8.771-.2-8.668-.12-8.563-.04-8.439 0-8.295 0H-7.807C-7.657 0-7.534-.037-7.438-.111-7.343-.187-7.273-.283-7.23-.4L-4.644-8.096C-4.548-8.389-4.463-8.723-4.388-9.096-4.323-8.729-4.254-8.395-4.18-8.096L-1.905-.4C-1.879-.293-1.812-.2-1.705-.12-1.599-.04-1.473 0-1.329 0Z" fill="#ce1443"/>
<path transform="matrix(1,0,0,-1,0,324)" d="M191.552 57.838H189.838V69.336H191.552Z" fill="#ce1443"/>
<path transform="matrix(1,0,0,-1,200.6855,256.5371)" d="M0 0C-.054-.092-.11-.158-.169-.201-.228-.244-.302-.265-.393-.265-.489-.265-.599-.221-.721-.133-.844-.045-.997 .055-1.182 .164-1.365 .273-1.586 .371-1.842 .46-2.099 .548-2.405 .592-2.763 .592-3.1 .592-3.395 .548-3.647 .46-3.901 .371-4.113 .252-4.284 .1-4.455-.053-4.585-.231-4.673-.437-4.761-.643-4.805-.865-4.805-1.105-4.805-1.416-4.727-1.672-4.568-1.875-4.411-2.077-4.204-2.25-3.948-2.395-3.691-2.539-3.401-2.664-3.075-2.771-2.75-2.878-2.416-2.988-2.074-3.104-1.732-3.219-1.399-3.351-1.073-3.5-.748-3.649-.457-3.838-.2-4.064 .056-4.291 .263-4.568 .42-4.896 .577-5.226 .656-5.627 .656-6.102 .656-6.609 .569-7.084 .396-7.527 .223-7.971-.03-8.357-.36-8.688-.691-9.02-1.099-9.279-1.582-9.469-2.065-9.658-2.613-9.754-3.228-9.754-3.596-9.754-3.953-9.718-4.301-9.646-4.647-9.573-4.976-9.473-5.285-9.342-5.595-9.211-5.885-9.053-6.154-8.869-6.424-8.685-6.665-8.479-6.879-8.248L-6.391-7.432C-6.342-7.367-6.285-7.314-6.218-7.271-6.151-7.229-6.075-7.207-5.99-7.207-5.878-7.207-5.748-7.266-5.602-7.383-5.455-7.501-5.273-7.631-5.057-7.771-4.841-7.913-4.582-8.043-4.28-8.16-3.979-8.277-3.611-8.336-3.18-8.336-2.827-8.336-2.512-8.289-2.234-8.196-1.957-8.104-1.724-7.969-1.534-7.796-1.345-7.623-1.199-7.412-1.098-7.167-.996-6.922-.945-6.649-.945-6.351-.945-6.014-1.022-5.739-1.178-5.525-1.332-5.312-1.538-5.133-1.794-4.989-2.051-4.846-2.342-4.723-2.667-4.621-2.992-4.52-3.326-4.414-3.668-4.305-4.01-4.195-4.343-4.068-4.669-3.924-4.994-3.78-5.285-3.592-5.542-3.359-5.798-3.127-6.003-2.836-6.158-2.486-6.312-2.137-6.391-1.706-6.391-1.193-6.391-.783-6.311-.385-6.15 0-5.99 .384-5.757 .725-5.449 1.021-5.143 1.316-4.765 1.555-4.316 1.732-3.868 1.912-3.355 2.002-2.779 2.002-2.133 2.002-1.539 1.898-.997 1.693-.456 1.487 .016 1.192 .416 .809Z" fill="#ce1443"/>
<path transform="matrix(1,0,0,-1,211.8369,263.6963)" d="M0 0C.097 0 .179-.038 .249-.112L.921-.849C.451-1.404-.121-1.833-.796-2.138-1.472-2.442-2.284-2.595-3.234-2.595-4.067-2.595-4.821-2.45-5.497-2.162-6.172-1.874-6.748-1.471-7.227-.953-7.704-.435-8.074 .185-8.335 .905-8.597 1.626-8.728 2.418-8.728 3.283-8.728 4.147-8.59 4.94-8.315 5.661-8.04 6.382-7.654 7.001-7.158 7.519-6.662 8.036-6.068 8.44-5.377 8.728-4.686 9.017-3.921 9.161-3.082 9.161-2.266 9.161-1.54 9.026-.904 8.761-.27 8.493 .283 8.138 .753 7.695L.192 6.902C.155 6.844 .108 6.796 .053 6.759-.004 6.721-.077 6.702-.168 6.702-.27 6.702-.388 6.753-.524 6.854-.66 6.956-.839 7.069-1.061 7.194-1.282 7.319-1.556 7.434-1.881 7.535-2.207 7.636-2.612 7.687-3.099 7.687-3.67 7.687-4.192 7.587-4.668 7.387-5.143 7.187-5.553 6.898-5.897 6.522-6.241 6.146-6.509 5.685-6.697 5.137-6.888 4.589-6.982 3.972-6.982 3.283-6.982 2.583-6.883 1.962-6.686 1.417-6.488 .872-6.216 .411-5.869 .032-5.522-.347-5.113-.636-4.644-.833-4.174-1.03-3.667-1.129-3.122-1.129-2.792-1.129-2.494-1.108-2.229-1.069-1.966-1.028-1.723-.969-1.501-.889-1.279-.809-1.07-.706-.872-.581-.675-.455-.48-.304-.288-.128-.245-.091-.2-.06-.151-.036-.104-.013-.053 0 0 0" fill="#ce1443"/>
<path transform="matrix(1,0,0,-1,223.5508,260.4131)" d="M0 0C0 .683-.094 1.297-.28 1.841-.468 2.386-.733 2.848-1.077 3.227-1.422 3.606-1.838 3.896-2.326 4.1-2.814 4.302-3.36 4.403-3.964 4.403-4.567 4.403-5.113 4.302-5.602 4.1-6.09 3.896-6.508 3.606-6.854 3.227-7.201 2.848-7.469 2.386-7.655 1.841-7.842 1.297-7.936 .683-7.936 0-7.936-.688-7.842-1.304-7.655-1.846-7.469-2.388-7.201-2.849-6.854-3.228-6.508-3.606-6.09-3.896-5.602-4.097-5.113-4.296-4.567-4.396-3.964-4.396-3.36-4.396-2.814-4.296-2.326-4.097-1.838-3.896-1.422-3.606-1.077-3.228-.733-2.849-.468-2.388-.28-1.846-.094-1.304 0-.688 0 0M1.745 0C1.745-.86 1.607-1.648 1.333-2.366 1.058-3.085 .67-3.704 .168-4.224-.334-4.745-.935-5.149-1.634-5.437-2.333-5.726-3.109-5.87-3.964-5.87-4.812-5.87-5.588-5.726-6.29-5.437-6.992-5.149-7.593-4.745-8.092-4.224-8.591-3.704-8.979-3.085-9.257-2.366-9.534-1.648-9.673-.86-9.673 0-9.673 .854-9.534 1.642-9.257 2.362-8.979 3.083-8.591 3.703-8.092 4.224-7.593 4.744-6.992 5.149-6.29 5.44-5.588 5.731-4.812 5.878-3.964 5.878-3.109 5.878-2.333 5.731-1.634 5.44-.935 5.149-.334 4.744 .168 4.224 .67 3.703 1.058 3.083 1.333 2.362 1.607 1.642 1.745 .854 1.745 0" fill="#ce1443"/>
<path transform="matrix(1,0,0,-1,237.1709,254.6641)" d="M0 0V-11.498H-.865C-.998-11.498-1.109-11.475-1.197-11.426-1.285-11.379-1.375-11.301-1.466-11.194L-7.959-2.795C-7.948-2.938-7.939-3.08-7.932-3.219-7.923-3.357-7.919-3.488-7.919-3.611V-11.498H-9.417V0H-8.536C-8.387 0-8.274-.018-8.199-.052-8.125-.087-8.042-.166-7.951-.288L-1.441-8.695C-1.457-8.541-1.47-8.391-1.478-8.244-1.485-8.097-1.489-7.959-1.489-7.831V0Z" fill="#ce1443"/>
<path transform="matrix(1,0,0,-1,246.3154,256.5371)" d="M0 0C-.054-.092-.11-.158-.169-.201-.228-.244-.302-.265-.393-.265-.489-.265-.599-.221-.721-.133-.844-.045-.997 .055-1.182 .164-1.365 .273-1.586 .371-1.842 .46-2.099 .548-2.405 .592-2.763 .592-3.1 .592-3.395 .548-3.647 .46-3.901 .371-4.113 .252-4.284 .1-4.455-.053-4.585-.231-4.673-.437-4.761-.643-4.805-.865-4.805-1.105-4.805-1.416-4.727-1.672-4.568-1.875-4.411-2.077-4.204-2.25-3.948-2.395-3.691-2.539-3.401-2.664-3.075-2.771-2.75-2.878-2.416-2.988-2.074-3.104-1.732-3.219-1.399-3.351-1.073-3.5-.748-3.649-.457-3.838-.2-4.064 .056-4.291 .263-4.568 .42-4.896 .577-5.226 .656-5.627 .656-6.102 .656-6.609 .569-7.084 .396-7.527 .223-7.971-.03-8.357-.36-8.688-.691-9.02-1.099-9.279-1.582-9.469-2.065-9.658-2.613-9.754-3.228-9.754-3.596-9.754-3.953-9.718-4.301-9.646-4.647-9.573-4.976-9.473-5.285-9.342-5.595-9.211-5.885-9.053-6.154-8.869-6.424-8.685-6.665-8.479-6.879-8.248L-6.391-7.432C-6.342-7.367-6.285-7.314-6.218-7.271-6.151-7.229-6.075-7.207-5.99-7.207-5.878-7.207-5.748-7.266-5.602-7.383-5.455-7.501-5.273-7.631-5.057-7.771-4.841-7.913-4.582-8.043-4.28-8.16-3.979-8.277-3.611-8.336-3.18-8.336-2.827-8.336-2.512-8.289-2.234-8.196-1.957-8.104-1.724-7.969-1.534-7.796-1.345-7.623-1.199-7.412-1.098-7.167-.996-6.922-.945-6.649-.945-6.351-.945-6.014-1.022-5.739-1.178-5.525-1.332-5.312-1.538-5.133-1.794-4.989-2.051-4.846-2.342-4.723-2.667-4.621-2.992-4.52-3.326-4.414-3.668-4.305-4.01-4.195-4.343-4.068-4.669-3.924-4.994-3.78-5.285-3.592-5.542-3.359-5.798-3.127-6.003-2.836-6.158-2.486-6.312-2.137-6.391-1.706-6.391-1.193-6.391-.783-6.311-.385-6.15 0-5.99 .384-5.757 .725-5.449 1.021-5.143 1.316-4.765 1.555-4.316 1.732-3.868 1.912-3.355 2.002-2.779 2.002-2.133 2.002-1.539 1.898-.997 1.693-.456 1.487 .016 1.192 .416 .809Z" fill="#ce1443"/>
<path transform="matrix(1,0,0,-1,0,324)" d="M251.184 57.838H249.47V69.336H251.184Z" fill="#ce1443"/>
<path transform="matrix(1,0,0,-1,263.8828,254.6641)" d="M0 0V-11.498H-.865C-.998-11.498-1.109-11.475-1.197-11.426-1.285-11.379-1.375-11.301-1.466-11.194L-7.959-2.795C-7.948-2.938-7.939-3.08-7.932-3.219-7.923-3.357-7.919-3.488-7.919-3.611V-11.498H-9.417V0H-8.536C-8.387 0-8.274-.018-8.199-.052-8.125-.087-8.042-.166-7.951-.288L-1.441-8.695C-1.457-8.541-1.47-8.391-1.478-8.244-1.485-8.097-1.489-7.959-1.489-7.831V0Z" fill="#ce1443"/>
<path transform="matrix(1,0,0,-1,0,324)" d="M266.813 63.891H273.235V62.753999H266.813Z" fill="#ce1443"/>
<path transform="matrix(1,0,0,-1,288.249,254.6641)" d="M0 0V-11.498H-1.49V-3.314C-1.49-3.192-1.485-3.062-1.478-2.923-1.47-2.783-1.461-2.643-1.45-2.498L-5.277-9.521C-5.411-9.782-5.616-9.913-5.894-9.913H-6.134C-6.412-9.913-6.614-9.782-6.742-9.521L-10.643-2.475C-10.61-2.773-10.594-3.054-10.594-3.314V-11.498H-12.092V0H-10.826C-10.677 0-10.561-.015-10.478-.044-10.396-.073-10.316-.154-10.242-.288L-6.398-7.174C-6.323-7.313-6.254-7.46-6.19-7.615-6.126-7.77-6.064-7.925-6.006-8.08-5.894-7.765-5.763-7.46-5.613-7.166L-1.842-.288C-1.772-.154-1.696-.073-1.614-.044-1.531-.015-1.415 0-1.266 0Z" fill="#ce1443"/>
<path transform="matrix(1,0,0,-1,297.6191,261.8789)" d="M0 0-1.706 4.461C-1.829 4.765-1.951 5.148-2.074 5.613-2.133 5.384-2.193 5.17-2.255 4.973-2.316 4.775-2.376 4.6-2.435 4.444L-4.132 0ZM3.371-4.283H2.058C1.908-4.283 1.785-4.246 1.689-4.172 1.593-4.097 1.523-4.001 1.48-3.883L.464-1.217H-4.604L-5.622-3.883C-5.659-3.984-5.729-4.076-5.83-4.16-5.932-4.242-6.054-4.283-6.198-4.283H-7.512L-2.931 7.215H-1.21Z" fill="#ce1443"/>
<path transform="matrix(1,0,0,-1,311.1592,260.4131)" d="M0 0C0 .683-.094 1.296-.28 1.837-.468 2.38-.732 2.839-1.077 3.215-1.422 3.591-1.838 3.878-2.326 4.075-2.814 4.272-3.36 4.372-3.964 4.372H-6.574V-4.372H-3.964C-3.36-4.372-2.814-4.273-2.326-4.076-1.838-3.878-1.422-3.591-1.077-3.216-.732-2.839-.468-2.382-.28-1.842-.094-1.303 0-.688 0 0M1.745 0C1.745-.86 1.607-1.642 1.333-2.347 1.058-3.051 .67-3.655 .168-4.16-.334-4.665-.935-5.056-1.634-5.333-2.333-5.61-3.109-5.749-3.964-5.749H-8.288V5.749H-3.964C-3.109 5.749-2.333 5.61-1.634 5.333-.935 5.056-.334 4.664 .168 4.159 .67 3.655 1.058 3.05 1.333 2.342 1.607 1.635 1.745 .854 1.745 0" fill="#ce1443"/>
<path transform="matrix(1,0,0,-1,0,324)" d="M317.261 57.838H315.547V69.336H317.261Z" fill="#ce1443"/>
<path transform="matrix(1,0,0,-1,326.3936,256.5371)" d="M0 0C-.054-.092-.11-.158-.169-.201-.228-.244-.302-.265-.393-.265-.489-.265-.599-.221-.721-.133-.844-.045-.997 .055-1.182 .164-1.365 .273-1.586 .371-1.842 .46-2.099 .548-2.405 .592-2.763 .592-3.1 .592-3.395 .548-3.647 .46-3.901 .371-4.113 .252-4.284 .1-4.455-.053-4.585-.231-4.673-.437-4.761-.643-4.805-.865-4.805-1.105-4.805-1.416-4.727-1.672-4.568-1.875-4.411-2.077-4.204-2.25-3.948-2.395-3.691-2.539-3.401-2.664-3.075-2.771-2.75-2.878-2.416-2.988-2.074-3.104-1.732-3.219-1.399-3.351-1.073-3.5-.748-3.649-.457-3.838-.2-4.064 .056-4.291 .263-4.568 .42-4.896 .577-5.226 .656-5.627 .656-6.102 .656-6.609 .569-7.084 .396-7.527 .223-7.971-.03-8.357-.36-8.688-.691-9.02-1.099-9.279-1.582-9.469-2.065-9.658-2.613-9.754-3.228-9.754-3.596-9.754-3.953-9.718-4.301-9.646-4.647-9.573-4.976-9.473-5.285-9.342-5.595-9.211-5.885-9.053-6.154-8.869-6.424-8.685-6.665-8.479-6.879-8.248L-6.391-7.432C-6.342-7.367-6.285-7.314-6.218-7.271-6.151-7.229-6.075-7.207-5.99-7.207-5.878-7.207-5.748-7.266-5.602-7.383-5.455-7.501-5.273-7.631-5.057-7.771-4.841-7.913-4.582-8.043-4.28-8.16-3.979-8.277-3.611-8.336-3.18-8.336-2.827-8.336-2.512-8.289-2.234-8.196-1.957-8.104-1.724-7.969-1.534-7.796-1.345-7.623-1.199-7.412-1.098-7.167-.996-6.922-.945-6.649-.945-6.351-.945-6.014-1.022-5.739-1.178-5.525-1.332-5.312-1.538-5.133-1.794-4.989-2.051-4.846-2.342-4.723-2.667-4.621-2.992-4.52-3.326-4.414-3.668-4.305-4.01-4.195-4.343-4.068-4.669-3.924-4.994-3.78-5.285-3.592-5.542-3.359-5.798-3.127-6.003-2.836-6.158-2.486-6.312-2.137-6.391-1.706-6.391-1.193-6.391-.783-6.311-.385-6.15 0-5.99 .384-5.757 .725-5.449 1.021-5.143 1.316-4.765 1.555-4.316 1.732-3.868 1.912-3.355 2.002-2.779 2.002-2.133 2.002-1.539 1.898-.997 1.693-.456 1.487 .016 1.192 .416 .809Z" fill="#ce1443"/>
<path transform="matrix(1,0,0,-1,338.4834,260.4131)" d="M0 0C0 .683-.094 1.297-.28 1.841-.468 2.386-.733 2.848-1.077 3.227-1.422 3.606-1.838 3.896-2.326 4.1-2.814 4.302-3.36 4.403-3.964 4.403-4.567 4.403-5.113 4.302-5.602 4.1-6.09 3.896-6.508 3.606-6.854 3.227-7.201 2.848-7.469 2.386-7.655 1.841-7.842 1.297-7.936 .683-7.936 0-7.936-.688-7.842-1.304-7.655-1.846-7.469-2.388-7.201-2.849-6.854-3.228-6.508-3.606-6.09-3.896-5.602-4.097-5.113-4.296-4.567-4.396-3.964-4.396-3.36-4.396-2.814-4.296-2.326-4.097-1.838-3.896-1.422-3.606-1.077-3.228-.733-2.849-.468-2.388-.28-1.846-.094-1.304 0-.688 0 0M1.745 0C1.745-.86 1.607-1.648 1.333-2.366 1.058-3.085 .67-3.704 .168-4.224-.334-4.745-.935-5.149-1.634-5.437-2.333-5.726-3.109-5.87-3.964-5.87-4.812-5.87-5.588-5.726-6.29-5.437-6.992-5.149-7.593-4.745-8.092-4.224-8.591-3.704-8.979-3.085-9.257-2.366-9.534-1.648-9.673-.86-9.673 0-9.673 .854-9.534 1.642-9.257 2.362-8.979 3.083-8.591 3.703-8.092 4.224-7.593 4.744-6.992 5.149-6.29 5.44-5.588 5.731-4.812 5.878-3.964 5.878-3.109 5.878-2.333 5.731-1.634 5.44-.935 5.149-.334 4.744 .168 4.224 .67 3.703 1.058 3.083 1.333 2.362 1.607 1.642 1.745 .854 1.745 0" fill="#ce1443"/>
<path transform="matrix(1,0,0,-1,352.1514,254.6641)" d="M0 0V-11.498H-.865C-.998-11.498-1.109-11.475-1.197-11.426-1.285-11.379-1.375-11.301-1.466-11.194L-7.959-2.795C-7.948-2.938-7.939-3.08-7.932-3.219-7.923-3.357-7.919-3.488-7.919-3.611V-11.498H-9.417V0H-8.536C-8.387 0-8.274-.018-8.199-.052-8.125-.087-8.042-.166-7.951-.288L-1.441-8.695C-1.457-8.541-1.47-8.391-1.478-8.244-1.485-8.097-1.489-7.959-1.489-7.831V0Z" fill="#ce1443"/>
</g>
</g>
</svg>
